<?xml version="1.0" ?><!DOCTYPE svg  PUBLIC '-//W3C//DTD SVG 1.1//EN'  'http://www.w3.org/Graphics/SVG/1.1/DTD/svg11.dtd'><svg enable-background="new 0 0 512 512" height="512px" id="Layer_1" version="1.1" viewBox="0 0 512 512" width="512px" xml:space="preserve" xmlns="http://www.w3.org/2000/svg" xmlns:xlink="http://www.w3.org/1999/xlink"><path d="M256,6.234C118.059,6.234,6.234,118.059,6.234,256.001c0,137.94,111.824,249.765,249.766,249.765  s249.766-111.824,249.766-249.765C505.766,118.059,393.941,6.234,256,6.234z M489.966,258  C487.828,385.396,383.907,488.017,256,488.017c-127.907,0-231.829-102.62-233.966-230.017h-0.051c0-0.669,0.02-1.333,0.025-2  c-0.006-0.667-0.025-1.331-0.025-2h0.051C24.171,126.603,128.093,23.983,256,23.983c127.907,0,231.829,102.62,233.966,230.017h0.051  c0,0.669-0.02,1.333-0.025,2c0.006,0.667,0.025,1.331,0.025,2H489.966z" fill="#040404"/><path d="M256,132.228  c-68.357,0-123.772,55.415-123.772,123.772S187.643,379.772,256,379.772S379.772,324.357,379.772,256S324.357,132.228,256,132.228z   M256,331.024c-41.436,0-75.024-33.59-75.024-75.024s33.589-75.024,75.024-75.024c41.435,0,75.024,33.59,75.024,75.024  S297.435,331.024,256,331.024z" fill="none" stroke="#000000" stroke-miterlimit="10" stroke-width="13"/><path d="M256,223.724c-17.826,0-32.276,14.451-32.276,32.276c0,17.826,14.45,32.276,32.276,32.276  s32.276-14.45,32.276-32.276C288.276,238.174,273.826,223.724,256,223.724z M256,277.951c-12.124,0-21.952-9.827-21.952-21.951  s9.828-21.952,21.952-21.952c12.124,0,21.951,9.828,21.951,21.952S268.124,277.951,256,277.951z" fill="#040404"/><path d="M256,180.976c-41.436,0-75.024,33.59-75.024,75.024s33.589,75.024,75.024,75.024  c41.435,0,75.024-33.59,75.024-75.024S297.435,180.976,256,180.976z M256,307.025c-28.181,0-51.025-22.844-51.025-51.025  s22.845-51.025,51.025-51.025c28.182,0,51.025,22.844,51.025,51.025S284.182,307.025,256,307.025z" fill="#040404"/><g><path d="M136.784,252.489c0-17.625,3.758-34.489,10.509-49.489H14v107h137.237   C142.019,292,136.784,273.296,136.784,252.489z" fill="#040404"/><path d="M369.264,203c6.751,15,10.509,31.863,10.509,49.489c0,20.807-5.234,39.511-14.452,57.511H498V203H369.264z" fill="#040404"/></g></svg>